%FSLAX25Y25*%
%MOIN*%
G70*
G01*
G75*
G04 Layer_Color=8388736*
%ADD10R,0.11811X0.03937*%
%ADD11R,0.11811X0.05906*%
%ADD12R,0.03150X0.03543*%
%ADD13C,0.01000*%
%ADD14C,0.06000*%
%ADD15C,0.07874*%
%ADD16C,0.15748*%
%ADD17C,0.00787*%
%ADD18R,0.12611X0.04737*%
%ADD19R,0.12611X0.06706*%
%ADD20R,0.03950X0.04343*%
%ADD21C,0.06800*%
%ADD22C,0.08674*%
%ADD23C,0.16548*%
D17*
X39649Y133223D02*
X38074D01*
X38861D01*
Y129287D01*
X38074Y128500D01*
X37287D01*
X36500Y129287D01*
X42010Y128500D02*
X43584D01*
X44372Y129287D01*
Y130861D01*
X43584Y131649D01*
X42010D01*
X41223Y130861D01*
Y129287D01*
X42010Y128500D01*
X45946Y131649D02*
Y129287D01*
X46733Y128500D01*
X49094D01*
Y127713D01*
X48307Y126926D01*
X47520D01*
X49094Y128500D02*
Y131649D01*
X53817Y132436D02*
X53030Y133223D01*
X51456D01*
X50669Y132436D01*
Y131649D01*
X51456Y130861D01*
X53030D01*
X53817Y130074D01*
Y129287D01*
X53030Y128500D01*
X51456D01*
X50669Y129287D01*
X56179Y132436D02*
Y131649D01*
X55392D01*
X56966D01*
X56179D01*
Y129287D01*
X56966Y128500D01*
X59327D02*
X60901D01*
X60114D01*
Y131649D01*
X59327D01*
X66412D02*
X64050D01*
X63263Y130861D01*
Y129287D01*
X64050Y128500D01*
X66412D01*
X67986D02*
Y133223D01*
Y130074D02*
X70347Y131649D01*
X67986Y130074D02*
X70347Y128500D01*
X77432D02*
Y133223D01*
X79006Y131649D01*
X80580Y133223D01*
Y128500D01*
X82942D02*
X84516D01*
X85303Y129287D01*
Y130861D01*
X84516Y131649D01*
X82942D01*
X82155Y130861D01*
Y129287D01*
X82942Y128500D01*
X90026Y133223D02*
Y128500D01*
X87665D01*
X86877Y129287D01*
Y130861D01*
X87665Y131649D01*
X90026D01*
X91600D02*
Y129287D01*
X92387Y128500D01*
X94749D01*
Y131649D01*
X96323Y128500D02*
X97897D01*
X97110D01*
Y133223D01*
X96323D01*
X102620Y128500D02*
X101046D01*
X100259Y129287D01*
Y130861D01*
X101046Y131649D01*
X102620D01*
X103408Y130861D01*
Y130074D01*
X100259D01*
X109705Y133223D02*
Y130074D01*
X111279Y128500D01*
X112853Y130074D01*
Y133223D01*
X117576Y128500D02*
X114427D01*
X117576Y131649D01*
Y132436D01*
X116789Y133223D01*
X115215D01*
X114427Y132436D01*
D18*
X28150Y26650D02*
D03*
Y34524D02*
D03*
Y18776D02*
D03*
Y71150D02*
D03*
Y79024D02*
D03*
Y63276D02*
D03*
Y114650D02*
D03*
Y122524D02*
D03*
Y106776D02*
D03*
D19*
X8465Y10114D02*
D03*
Y43185D02*
D03*
Y54614D02*
D03*
Y87685D02*
D03*
Y98114D02*
D03*
Y131185D02*
D03*
D20*
X58406Y14650D02*
D03*
X52894D02*
D03*
D21*
X82854Y24953D02*
D03*
X108445D02*
D03*
Y42669D02*
D03*
X134035Y65307D02*
D03*
Y75150D02*
D03*
X85807Y113535D02*
D03*
X95650D02*
D03*
X105492D02*
D03*
X134035Y84992D02*
D03*
X82854Y42669D02*
D03*
D22*
X126161Y48968D02*
D03*
X65138D02*
D03*
X126161Y101331D02*
D03*
X65138D02*
D03*
D23*
X138150Y126650D02*
D03*
Y13150D02*
D03*
M02*
