%FSLAX25Y25*%
%MOIN*%
G70*
G01*
G75*
%ADD10R,0.11811X0.03937*%
%ADD11R,0.11811X0.05906*%
%ADD12R,0.03150X0.03543*%
%ADD13C,0.01000*%
%ADD14C,0.06000*%
%ADD15C,0.07874*%
%ADD16C,0.15748*%
D13*
X110937Y3862D02*
X112150Y2650D01*
X110437Y3862D02*
X110937D01*
X110437D02*
Y3937D01*
X110862D01*
X110437D02*
X112150Y5650D01*
X110236Y3937D02*
X110437D01*
X110236D02*
X110437D01*
X122051Y15748D02*
X123150Y14650D01*
X122047Y15748D02*
X122051D01*
X120650Y14650D02*
X121748Y15748D01*
X122047D01*
Y3937D02*
Y15748D01*
X110236Y3937D02*
X122047D01*
X2650Y6650D02*
Y46650D01*
Y6650D02*
X28150D01*
Y46650D01*
X2650D02*
X28150D01*
X2650Y51150D02*
Y91150D01*
Y51150D02*
X28150D01*
Y91150D01*
X2650D02*
X28150D01*
X2650Y94650D02*
Y134650D01*
Y94650D02*
X28150D01*
Y134650D01*
X2650D02*
X28150D01*
X124650Y6648D02*
X125649Y7648D01*
X127649D01*
X128648Y6648D01*
Y2649D01*
X127649Y1650D01*
X125649D01*
X124650Y2649D01*
Y6648D01*
X103650Y8648D02*
Y7648D01*
X105649Y5649D01*
X107648Y7648D01*
Y8648D01*
X105649Y5649D02*
Y2650D01*
X120150Y23648D02*
X124148Y17650D01*
Y23648D02*
X120150Y17650D01*
M02*
