%FSLAX25Y25*%
%MOIN*%
G70*
G01*
G75*
G04 Layer_Color=2752767*
%ADD10C,0.00394*%
%ADD11C,0.00500*%
%ADD12C,0.00667*%
D10*
X52205Y12779D02*
X59095D01*
X52205Y16520D02*
X59095D01*
Y12779D02*
Y16520D01*
X52205Y12779D02*
Y16520D01*
X55650Y12779D02*
Y16520D01*
X53780Y14650D02*
X57520D01*
X50925Y12484D02*
X60374D01*
X50925Y16815D02*
X60374D01*
Y12484D02*
Y16815D01*
X50925Y12484D02*
Y16815D01*
D11*
X80854Y22953D02*
Y26953D01*
X84854D01*
Y22953D01*
X80854D01*
X106445D02*
Y26953D01*
X110445D01*
Y22953D01*
X106445D01*
Y40669D02*
Y44669D01*
X110445D01*
Y40669D01*
X106445D01*
X132035Y63307D02*
Y67307D01*
X136035D01*
Y63307D01*
X132035D01*
Y73150D02*
Y77150D01*
X136035D01*
Y73150D01*
X132035D01*
X83807Y111535D02*
Y115535D01*
X87807D01*
Y111535D01*
X83807D01*
X93650D02*
Y115535D01*
X97650D01*
Y111535D01*
X93650D01*
X103492D02*
Y115535D01*
X107492D01*
Y111535D01*
X103492D01*
X132035Y82992D02*
Y86992D01*
X136035D01*
Y82992D01*
X132035D01*
X80854Y40669D02*
Y44669D01*
X84854D01*
Y40669D01*
X80854D01*
X138150Y124650D02*
X136150Y128650D01*
X140150D01*
X138150Y124650D01*
Y11150D02*
X136150Y15150D01*
X140150D01*
X138150Y11150D01*
D12*
X128161Y48968D02*
G03*
X128161Y48968I-2000J0D01*
G01*
X67138D02*
G03*
X67138Y48968I-2000J0D01*
G01*
X128161Y101331D02*
G03*
X128161Y101331I-2000J0D01*
G01*
X67138D02*
G03*
X67138Y101331I-2000J0D01*
G01*
M02*
