%FSLAX25Y25*%
%MOIN*%
G70*
G01*
G75*
%ADD10C,0.00394*%
%ADD11C,0.00500*%
%ADD12C,0.00667*%
D10*
X52205Y12779D02*
X59095D01*
X52205Y16520D02*
X59095D01*
Y12779D02*
Y16520D01*
X52205Y12779D02*
Y16520D01*
X55650Y12779D02*
Y16520D01*
X53780Y14650D02*
X57520D01*
X50925Y12484D02*
X60374D01*
X50925Y16815D02*
X60374D01*
Y12484D02*
Y16815D01*
X50925Y12484D02*
Y16815D01*
D11*
X80886Y24953D02*
X84823D01*
X82854Y22984D02*
Y26921D01*
X106476Y24953D02*
X110413D01*
X108445Y22984D02*
Y26921D01*
X106476Y42669D02*
X110413D01*
X108445Y40701D02*
Y44638D01*
X132067Y65307D02*
X136004D01*
X134035Y63339D02*
Y67276D01*
X132067Y75150D02*
X136004D01*
X134035Y73181D02*
Y77118D01*
X83839Y113535D02*
X87776D01*
X85807Y111567D02*
Y115504D01*
X93681Y113535D02*
X97618D01*
X95650Y111567D02*
Y115504D01*
X123209Y48968D02*
X129114D01*
X126161Y46016D02*
Y51921D01*
X62185Y48968D02*
X68090D01*
X65138Y46016D02*
Y51921D01*
X103524Y113535D02*
X107461D01*
X105492Y111567D02*
Y115504D01*
X132067Y84992D02*
X136004D01*
X134035Y83024D02*
Y86961D01*
X80886Y42669D02*
X84823D01*
X82854Y40701D02*
Y44638D01*
X123209Y101331D02*
X129114D01*
X126161Y98378D02*
Y104283D01*
X62185Y101331D02*
X68090D01*
X65138Y98378D02*
Y104283D01*
X130276Y126650D02*
X146024D01*
X138150Y118776D02*
Y134524D01*
X130276Y13150D02*
X146024D01*
X138150Y5276D02*
Y21024D01*
M02*
